<?xml version="1.0" encoding="utf-8"?>
<!-- Generator: Adobe Illustrator 26.5.0, SVG Export Plug-In . SVG Version: 6.00 Build 0)  -->
<svg version="1.1" id="Calque_1" xmlns="http://www.w3.org/2000/svg" xmlns:xlink="http://www.w3.org/1999/xlink" x="0px" y="0px"
	 viewBox="0 0 1000 215.1" style="enable-background:new 0 0 1000 215.1;" xml:space="preserve">
<style type="text/css">
	.st0{fill:#205BF9;}
	.st1{fill:#FFFFFF;}
	.st2{fill:#E5352C;}
	.st3{fill:#FFAA00;}
</style>
<g>
	<g>
		<path d="M376.5,31.2h25.2L460.4,137l58.7-105.8h25.2v181.4h-29.7V102.4l-43.1,77.1h-22.2l-43.1-77.1v110.1h-29.7V31.2z"/>
		<path d="M606.3,86.6v69.5c0,20.9,11.1,31,27,31c17.1,0,30.5-12.8,30.5-32.5v-68h29.7v126h-29.7v-13.6
			c-9.3,9.8-22.9,16.1-37.8,16.1c-29.2,0-49.4-20.7-49.4-52.7V86.6H606.3z"/>
		<path d="M752.4,212.5h-29.7V23.6h29.7V212.5z"/>
		<path d="M905,149.6c0,36-29.2,65.5-65.5,65.5c-36,0-65.5-29.5-65.5-65.5c0-36.3,29.5-65.5,65.5-65.5
			C875.8,84.1,905,113.3,905,149.6z M839.5,185.3c19.6,0,35.8-16.1,35.8-35.8s-16.1-35.8-35.8-35.8c-19.6,0-35.8,16.1-35.8,35.8
			S819.9,185.3,839.5,185.3z"/>
		<path d="M927.2,86.6c6.5,0,11.1-4.3,11.1-10.8V52.8H968v33.8h32v29.7h-32v45.1c0,19.9,3,24.9,15.1,24.9c5.5,0,10.6-0.8,16.9-2
			v28.2c-5.8,1.5-14.1,2.5-20.9,2.5c-28.7,0-40.8-13.1-40.8-44.8v-53.9h-23.2V86.6H927.2z"/>
	</g>
	<g>
		<path class="st0" d="M104.2,180.5V84.3c0-29.3,23.8-53.1,53.1-53.1h124.8c10.5,0,15.5,12.9,7.7,20L152.1,198.9
			c-1.6,1.8-3.3,3.4-5.3,4.7C129.1,215.4,104.2,202.9,104.2,180.5z"/>
		<circle class="st1" cx="179.4" cy="73.9" r="20.7"/>
		<circle class="st2" cx="312.3" cy="27.2" r="11.3"/>
		<path class="st3" d="M0,45.9C0.5,20.4,21.3,0,46.9,0h0c25.8,0,46.7,20.9,46.7,46.7v39c0,4.4-3.5,7.9-7.9,7.9H47.9
			C21.7,93.5-0.5,72.1,0,45.9z"/>
	</g>
</g>
</svg>
